<svg id="Layer_1" data-name="Layer 1" xmlns="http://www.w3.org/2000/svg" viewBox="0 0 427.92 373.55"><defs><style>.cls-1{fill:none;}.cls-2{fill:#24316a;}</style></defs><path class="cls-1" d="M198.59,373.55l4.84-3.79a40.2,40.2,0,0,1-3.49-4.85A6.11,6.11,0,0,0,198.59,373.55Z"/><path class="cls-2" d="M178.71,197.85l-6-69.65a9,9,0,0,0-6.54-8.25c-4.87-1.15,5.89-7.83-163,120.57-6.34,4.82-2.26,16.09,5.16,14.23l164.23-46.91C176.22,206.78,179.13,202.68,178.71,197.85Z"/><path class="cls-2" d="M255.25,128.2l-6,69.65c-.42,4.83,2.49,8.93,6.19,10l164.23,46.91c7.41,1.86,11.5-9.41,5.15-14.23C256,112.16,266.66,118.8,261.79,120A9,9,0,0,0,255.25,128.2Z"/><path class="cls-2" d="M233.5,326.62,254.06,58.86c2.3-29.91-13.3-50.25-28.75-56.5C197.14-9,171.08,22.63,173.86,58.86l20.56,267.76-36.53,22.76c-5.6,5.82-1.54,16.79,5.83,15.75l40.21-5.65c3.56,6.21-.45,2.85-4,5.43a40.2,40.2,0,0,0,3.49,4.85l4.92-3.84h0a7.38,7.38,0,0,0,5.61,3.19c4,0,6.75-4.15,10-9.64l40.27,5.67c7.37,1,11.43-9.94,5.83-15.76l-24.8-15.45Z"/></svg>